<svg xmlns="http://www.w3.org/2000/svg" width="448" height="336" viewBox="0 0 448 336">
    <defs>
        <clipPath id="clip-path">
            <rect id="Rectangle_2892" width="448" height="336" fill="#f1f3f6" rx="46" transform="translate(744.407 377)"/>
        </clipPath>
        <style>
            .cls-4{fill:#e0e0e0}.cls-5{fill:#acc754}.cls-6,.cls-8{fill:none;stroke:#fff}.cls-6{stroke-miterlimit:10;stroke-width:16px}.cls-8{stroke-width:8px;stroke-linejoin:round}.cls-10,.cls-9{fill:#a4aec1;font-size:12px}.cls-9{font-family:FiraGO-Italic,FiraGO;font-style:italic}.cls-10{font-family:Roboto-Medium,Roboto;font-weight:500}
        </style>
    </defs>
    <g id="Group_4430" transform="translate(-910 -270)">
        <g id="Group_3701" transform="translate(165.593 -107)">
            <g id="Group_3700" clip-path="url(#clip-path)">
                <g id="Group_3699">
                    <rect id="Rectangle_2891" width="448" height="336" fill="#ededed" rx="46" transform="translate(744.407 377)"/>
                    <path id="Path_2794" d="M1022.931 592.987l110.446-14.746 4.894 32.759-115.34 13.235z" class="cls-4"/>
                    <path id="Path_2795" d="M871.941 654.749L981.014 642 987 694.91l-106.413 12.111z" class="cls-4"/>
                    <path id="Path_2796" d="M864.252 601.238l76.893-12.654 3.5 18.874-80.388 10.485z" class="cls-4"/>
                    <path id="Path_2797" d="M1034.815 686.449l111.145-16.078 11.184 47.534-112.544 11.883z" class="cls-4"/>
                    <path id="Path_2798" d="M725.844 628.429L830.7 617.944l4.893 39.146-109.749 13.281z" class="cls-4"/>
                    <path id="Path_2799" d="M898.106 497.879L916.862 494 933 549.161l-32.277 5.171L892 510.376l9.16 3.879z" class="cls-4"/>
                    <path id="Path_2800" d="M801.572 453.206v-15.844h14.913l-2.33-21.9-30.291 5.126 3.262 34.951z" class="cls-4"/>
                    <path id="Path_2801" d="M761.495 510.527l19.223-2.8v17.243h14.33l2.33 29.359-29.359 3.728z" class="cls-4"/>
                    <path id="Path_2802" d="M803.437 542.682h13.049l-6.524-30.757 35.883-13.981L850.5 528.7l-17.243 1.4 2.33 14.9-19.107 3.74v16.311l-13.049 2.33z" class="cls-4"/>
                    <path id="Path_2803" d="M751.242 449.012h20.971v-18.175h7.223l-2.1-18.175h-12v-23.3L706.5 402.41l19.34 40.078z" class="cls-4"/>
                    <path id="Path_2804" d="M737.029 517.045l17.476-2.907 6.99 46.485-54.99 4.893z" class="cls-4"/>
                    <path id="Path_2805" d="M1144.213 432l7.689 35.3 34.6 26.214h17.476l5.243-68.854z" class="cls-4"/>
                    <path id="Path_2806" d="M788.058 367.459l6.99 29.709 23.767-2.33 13.049 84.931s44.97 2.331 83.65-10.252l-24.7-102.058z" class="cls-5"/>
                    <path id="Path_2807" d="M1165.533 624.235l51.728-4V697.5l-46.835 11.437z" class="cls-5"/>
                    <path id="Line_19" d="M0 60.034L458.213 0" class="cls-6" transform="translate(742.971 531.167)"/>
                    <path id="Path_2808" d="M1029.918 553.606l108.353-143.3 53.126-16.748" class="cls-6"/>
                    <path id="Line_20" d="M0 0L20.272 167.289" class="cls-6" transform="translate(992.873 558.459)"/>
                    <path id="Path_2809" d="M901.3 352.5s33.321 159.192 54.059 213.017" class="cls-6"/>
                    <path id="Path_2810" d="M737.728 459.008s64.31 24.024 89.242 26.354 64.078 1.141 99.5-13.177" class="cls-6"/>
                    <path id="Line_21" fill="none" stroke="#fff" stroke-miterlimit="10" stroke-width="8px" d="M0 11.828L105.85 0" transform="translate(754.907 693.672)"/>
                    <path id="Path_2811" d="M864.252 717.9l-10.485-75.8 147.077-17.868" class="cls-8"/>
                    <path id="Line_22" d="M0 20.549L155.082 0" class="cls-8" transform="translate(1004.859 636.818)"/>
                    <path id="Line_23" d="M8.388 176.063L0 0" class="cls-8" transform="translate(1157.145 536.937)"/>
                    <path id="Path_2812" d="M955.359 510.527l70.835-12.116 8.621-9.32 25.864 28.427-13.048 19.107L968.407 545z" class="cls-4"/>
                </g>
            </g>
        </g>
        <text id="ნუცუბიძის_ქუჩა" class="cls-9" transform="rotate(-8 3912.307 -6861.633)">
            <tspan x="0" y="0">ნუცუბიძის ქუჩა</tspan>
        </text>
        <text id="გ._ძოწენიძის_ქუჩა" class="cls-9" transform="rotate(76 338.062 846.36)">
            <tspan x="0" y="0">გ. ძოწენიძის ქუჩა</tspan>
        </text>
        <text id="შ._მიქელაძის_ქუჩა" class="cls-9" transform="rotate(84 313.871 882.002)">
            <tspan x="0" y="0">შ. მიქელაძის ქუჩა</tspan>
        </text>
        <text id="_76" class="cls-10" transform="translate(1235 499)">
            <tspan x="0" y="0">76</tspan>
        </text>
        <text id="_78" class="cls-10" transform="translate(1061 501)">
            <tspan x="0" y="0">78</tspan>
        </text>
        <text id="_131" class="cls-10" transform="translate(1066 428)">
            <tspan x="0" y="0">131</tspan>
        </text>
        <text id="_131-2" class="cls-10" transform="translate(985 416)">
            <tspan x="0" y="0">131</tspan>
        </text>
        <text id="_133" class="cls-10" transform="translate(935 436)">
            <tspan x="0" y="0">133</tspan>
        </text>
        <text id="_34" class="cls-10" transform="translate(947 539)">
            <tspan x="0" y="0">34</tspan>
        </text>
        <text id="_24" class="cls-10" transform="translate(1086 570)">
            <tspan x="0" y="0">24</tspan>
        </text>
        <text id="_1" class="cls-10" transform="translate(962 326)">
            <tspan x="0" y="0">1</tspan>
        </text>
        <text id="_23" class="cls-10" transform="translate(1250 594)">
            <tspan x="0" y="0">23</tspan>
        </text>
        <text id="_3" class="cls-10" transform="translate(922 326)">
            <tspan x="0" y="0">3</tspan>
        </text>
        <text id="_129" class="cls-10" transform="translate(1143 423)">
            <tspan x="0" y="0">129</tspan>
        </text>
        <text id="_127" class="cls-10" transform="translate(1327 351)">
            <tspan x="0" y="0">127</tspan>
        </text>
    </g>
</svg>
