<svg xmlns="http://www.w3.org/2000/svg" width="16" height="16" viewBox="0 0 16 16">
    <path fill="#cad7e5" d="M18 13.506A4.652 4.652 0 0 1 14.23 18l-.51-1.468a3.205 3.205 0 0 0 2.253-1.494H14a1.568 1.568 0 0 1-1.6-1.538v-3.064A1.568 1.568 0 0 1 14 8.9h2.35A6.315 6.315 0 0 0 10 3.535 6.315 6.315 0 0 0 3.65 8.9H6a1.568 1.568 0 0 1 1.6 1.534V13.5A1.568 1.568 0 0 1 6 15.038H3.6A1.568 1.568 0 0 1 2 13.5V9.669A7.84 7.84 0 0 1 10 2a7.84 7.84 0 0 1 8 7.669zm-1.6 0v-3.07H14V13.5zm-12.8-3.07V13.5H6v-3.064z" transform="translate(-2 -2)"/>
</svg>
